<svg id="visual" viewBox="0 0 900 450" width="900" height="450" xmlns="http://www.w3.org/2000/svg" xmlns:xlink="http://www.w3.org/1999/xlink" version="1.1"><rect x="0" y="0" width="900" height="450" fill="#fff"></rect><path d="M0 102L13.7 98C27.3 94 54.7 86 82 88.5C109.3 91 136.7 104 163.8 113.5C191 123 218 129 245.2 146C272.3 163 299.7 191 327 189.3C354.3 187.7 381.7 156.3 409 140.3C436.3 124.3 463.7 123.7 491 123.2C518.3 122.7 545.7 122.3 573 117.3C600.3 112.3 627.7 102.7 654.8 99.5C682 96.3 709 99.7 736.2 112.2C763.3 124.7 790.7 146.3 818 151.5C845.3 156.7 872.7 145.3 886.3 139.7L900 134L900 451L886.3 451C872.7 451 845.3 451 818 451C790.7 451 763.3 451 736.2 451C709 451 682 451 654.8 451C627.7 451 600.3 451 573 451C545.7 451 518.3 451 491 451C463.7 451 436.3 451 409 451C381.7 451 354.3 451 327 451C299.7 451 272.3 451 245.2 451C218 451 191 451 163.8 451C136.7 451 109.3 451 82 451C54.7 451 27.3 451 13.7 451L0 451Z" fill="#fa7268"></path><path d="M0 246L13.7 247.7C27.3 249.3 54.7 252.7 82 251.2C109.3 249.7 136.7 243.3 163.8 242.2C191 241 218 245 245.2 243.8C272.3 242.7 299.7 236.3 327 233.5C354.3 230.7 381.7 231.3 409 220.5C436.3 209.7 463.7 187.3 491 179.7C518.3 172 545.7 179 573 184.2C600.3 189.3 627.7 192.7 654.8 194.3C682 196 709 196 736.2 190C763.3 184 790.7 172 818 169.7C845.3 167.3 872.7 174.7 886.3 178.3L900 182L900 451L886.3 451C872.7 451 845.3 451 818 451C790.7 451 763.3 451 736.2 451C709 451 682 451 654.8 451C627.7 451 600.3 451 573 451C545.7 451 518.3 451 491 451C463.7 451 436.3 451 409 451C381.7 451 354.3 451 327 451C299.7 451 272.3 451 245.2 451C218 451 191 451 163.8 451C136.7 451 109.3 451 82 451C54.7 451 27.3 451 13.7 451L0 451Z" fill="#eb5967"></path><path d="M0 347L13.7 346.3C27.3 345.7 54.7 344.3 82 331.7C109.3 319 136.7 295 163.8 280C191 265 218 259 245.2 268C272.3 277 299.7 301 327 309.7C354.3 318.3 381.7 311.7 409 305.2C436.3 298.7 463.7 292.3 491 288.5C518.3 284.7 545.7 283.3 573 276.5C600.3 269.7 627.7 257.3 654.8 253.8C682 250.3 709 255.7 736.2 262C763.3 268.3 790.7 275.7 818 274.5C845.3 273.3 872.7 263.7 886.3 258.8L900 254L900 451L886.3 451C872.7 451 845.3 451 818 451C790.7 451 763.3 451 736.2 451C709 451 682 451 654.8 451C627.7 451 600.3 451 573 451C545.7 451 518.3 451 491 451C463.7 451 436.3 451 409 451C381.7 451 354.3 451 327 451C299.7 451 272.3 451 245.2 451C218 451 191 451 163.8 451C136.7 451 109.3 451 82 451C54.7 451 27.3 451 13.7 451L0 451Z" fill="#da3f67"></path><path d="M0 347L13.7 349.2C27.3 351.3 54.7 355.7 82 353.2C109.3 350.7 136.7 341.3 163.8 346.2C191 351 218 370 245.2 368.3C272.3 366.7 299.7 344.3 327 334.5C354.3 324.7 381.7 327.3 409 327.8C436.3 328.3 463.7 326.7 491 334.3C518.3 342 545.7 359 573 369.3C600.3 379.7 627.7 383.3 654.8 383.3C682 383.3 709 379.7 736.2 378.2C763.3 376.7 790.7 377.3 818 367.2C845.3 357 872.7 336 886.3 325.5L900 315L900 451L886.3 451C872.7 451 845.3 451 818 451C790.7 451 763.3 451 736.2 451C709 451 682 451 654.8 451C627.7 451 600.3 451 573 451C545.7 451 518.3 451 491 451C463.7 451 436.3 451 409 451C381.7 451 354.3 451 327 451C299.7 451 272.3 451 245.2 451C218 451 191 451 163.8 451C136.7 451 109.3 451 82 451C54.7 451 27.3 451 13.7 451L0 451Z" fill="#c62368"></path></svg>