<svg id="visual" viewBox="0 0 900 450" width="900" height="450" xmlns="http://www.w3.org/2000/svg" xmlns:xlink="http://www.w3.org/1999/xlink" version="1.1"><rect x="0" y="0" width="900" height="450" fill="#fff"></rect><path d="M0 78L13.7 90.3C27.3 102.7 54.7 127.3 82 130.5C109.3 133.7 136.7 115.3 163.8 106C191 96.7 218 96.3 245.2 103.8C272.3 111.3 299.7 126.7 327 134.3C354.3 142 381.7 142 409 145.3C436.3 148.7 463.7 155.3 491 161.7C518.3 168 545.7 174 573 182.3C600.3 190.7 627.7 201.3 654.8 196.2C682 191 709 170 736.2 165.8C763.3 161.7 790.7 174.3 818 182.7C845.3 191 872.7 195 886.3 197L900 199L900 451L886.3 451C872.7 451 845.3 451 818 451C790.7 451 763.3 451 736.2 451C709 451 682 451 654.8 451C627.7 451 600.3 451 573 451C545.7 451 518.3 451 491 451C463.7 451 436.3 451 409 451C381.7 451 354.3 451 327 451C299.7 451 272.3 451 245.2 451C218 451 191 451 163.8 451C136.7 451 109.3 451 82 451C54.7 451 27.3 451 13.7 451L0 451Z" fill="#fa7268"></path><path d="M0 269L13.7 260.5C27.3 252 54.7 235 82 237.8C109.3 240.7 136.7 263.3 163.8 266.2C191 269 218 252 245.2 249.7C272.3 247.3 299.7 259.7 327 252.8C354.3 246 381.7 220 409 208.5C436.3 197 463.7 200 491 196.2C518.3 192.3 545.7 181.7 573 188.3C600.3 195 627.7 219 654.8 235.5C682 252 709 261 736.2 255.2C763.3 249.3 790.7 228.7 818 223C845.3 217.3 872.7 226.7 886.3 231.3L900 236L900 451L886.3 451C872.7 451 845.3 451 818 451C790.7 451 763.3 451 736.2 451C709 451 682 451 654.8 451C627.7 451 600.3 451 573 451C545.7 451 518.3 451 491 451C463.7 451 436.3 451 409 451C381.7 451 354.3 451 327 451C299.7 451 272.3 451 245.2 451C218 451 191 451 163.8 451C136.7 451 109.3 451 82 451C54.7 451 27.3 451 13.7 451L0 451Z" fill="#eb5967"></path><path d="M0 329L13.7 322.8C27.3 316.7 54.7 304.3 82 301.7C109.3 299 136.7 306 163.8 303.2C191 300.3 218 287.7 245.2 287.5C272.3 287.3 299.7 299.7 327 293.8C354.3 288 381.7 264 409 267C436.3 270 463.7 300 491 306.7C518.3 313.3 545.7 296.7 573 289C600.3 281.3 627.7 282.7 654.8 279.3C682 276 709 268 736.2 262.7C763.3 257.3 790.7 254.7 818 252.5C845.3 250.3 872.7 248.7 886.3 247.8L900 247L900 451L886.3 451C872.7 451 845.3 451 818 451C790.7 451 763.3 451 736.2 451C709 451 682 451 654.8 451C627.7 451 600.3 451 573 451C545.7 451 518.3 451 491 451C463.7 451 436.3 451 409 451C381.7 451 354.3 451 327 451C299.7 451 272.3 451 245.2 451C218 451 191 451 163.8 451C136.7 451 109.3 451 82 451C54.7 451 27.3 451 13.7 451L0 451Z" fill="#da3f67"></path><path d="M0 393L13.7 392.7C27.3 392.3 54.7 391.7 82 391.3C109.3 391 136.7 391 163.8 380.3C191 369.7 218 348.3 245.2 338.5C272.3 328.7 299.7 330.3 327 334.2C354.3 338 381.7 344 409 348.3C436.3 352.7 463.7 355.3 491 354.8C518.3 354.3 545.7 350.7 573 349C600.3 347.3 627.7 347.7 654.8 354.3C682 361 709 374 736.2 370.2C763.3 366.3 790.7 345.7 818 344.7C845.3 343.7 872.7 362.3 886.3 371.7L900 381L900 451L886.3 451C872.7 451 845.3 451 818 451C790.7 451 763.3 451 736.2 451C709 451 682 451 654.8 451C627.7 451 600.3 451 573 451C545.7 451 518.3 451 491 451C463.7 451 436.3 451 409 451C381.7 451 354.3 451 327 451C299.7 451 272.3 451 245.2 451C218 451 191 451 163.8 451C136.7 451 109.3 451 82 451C54.7 451 27.3 451 13.7 451L0 451Z" fill="#c62368"></path></svg>