<svg id="visual" viewBox="0 0 960 540" width="960" height="540" xmlns="http://www.w3.org/2000/svg" xmlns:xlink="http://www.w3.org/1999/xlink" version="1.1"><rect x="0" y="0" width="960" height="540" fill="#FFFFFF"></rect><path d="M0 251L22.8 244.5C45.7 238 91.3 225 137 227.8C182.7 230.7 228.3 249.3 274 241C319.7 232.7 365.3 197.3 411.2 191C457 184.7 503 207.3 548.8 218.7C594.7 230 640.3 230 686 235.8C731.7 241.7 777.3 253.3 823 257.2C868.7 261 914.3 257 937.2 255L960 253L960 0L937.2 0C914.3 0 868.7 0 823 0C777.3 0 731.7 0 686 0C640.3 0 594.7 0 548.8 0C503 0 457 0 411.2 0C365.3 0 319.7 0 274 0C228.3 0 182.7 0 137 0C91.3 0 45.7 0 22.8 0L0 0Z" fill="#fa7268"></path><path d="M0 140L22.8 149C45.7 158 91.3 176 137 176.7C182.7 177.3 228.3 160.7 274 157.7C319.7 154.7 365.3 165.3 411.2 172.2C457 179 503 182 548.8 180.2C594.7 178.3 640.3 171.7 686 167.2C731.7 162.7 777.3 160.3 823 160.5C868.7 160.7 914.3 163.3 937.2 164.7L960 166L960 0L937.2 0C914.3 0 868.7 0 823 0C777.3 0 731.7 0 686 0C640.3 0 594.7 0 548.8 0C503 0 457 0 411.2 0C365.3 0 319.7 0 274 0C228.3 0 182.7 0 137 0C91.3 0 45.7 0 22.8 0L0 0Z" fill="#fa7268"></path><path d="M0 132L22.8 134C45.7 136 91.3 140 137 142C182.7 144 228.3 144 274 146.5C319.7 149 365.3 154 411.2 146.3C457 138.7 503 118.3 548.8 120.2C594.7 122 640.3 146 686 151.8C731.7 157.7 777.3 145.3 823 134.7C868.7 124 914.3 115 937.2 110.5L960 106L960 0L937.2 0C914.3 0 868.7 0 823 0C777.3 0 731.7 0 686 0C640.3 0 594.7 0 548.8 0C503 0 457 0 411.2 0C365.3 0 319.7 0 274 0C228.3 0 182.7 0 137 0C91.3 0 45.7 0 22.8 0L0 0Z" fill="#fa7268"></path><path d="M0 106L22.8 103.2C45.7 100.3 91.3 94.7 137 94.7C182.7 94.7 228.3 100.3 274 103C319.7 105.7 365.3 105.3 411.2 104.8C457 104.3 503 103.7 548.8 106C594.7 108.3 640.3 113.7 686 113.5C731.7 113.3 777.3 107.7 823 108.2C868.7 108.7 914.3 115.3 937.2 118.7L960 122L960 0L937.2 0C914.3 0 868.7 0 823 0C777.3 0 731.7 0 686 0C640.3 0 594.7 0 548.8 0C503 0 457 0 411.2 0C365.3 0 319.7 0 274 0C228.3 0 182.7 0 137 0C91.3 0 45.7 0 22.8 0L0 0Z" fill="#fa7268"></path><path d="M0 69L22.8 62.3C45.7 55.7 91.3 42.3 137 44C182.7 45.7 228.3 62.3 274 64.8C319.7 67.3 365.3 55.7 411.2 52.2C457 48.7 503 53.3 548.8 57.8C594.7 62.3 640.3 66.7 686 67.8C731.7 69 777.3 67 823 59.8C868.7 52.7 914.3 40.3 937.2 34.2L960 28L960 0L937.2 0C914.3 0 868.7 0 823 0C777.3 0 731.7 0 686 0C640.3 0 594.7 0 548.8 0C503 0 457 0 411.2 0C365.3 0 319.7 0 274 0C228.3 0 182.7 0 137 0C91.3 0 45.7 0 22.8 0L0 0Z" fill="#fa7268"></path></svg>