<svg id="visual" viewBox="0 0 960 540" width="960" height="540" xmlns="http://www.w3.org/2000/svg" xmlns:xlink="http://www.w3.org/1999/xlink" version="1.1"><rect x="0" y="0" width="960" height="540" fill="#FFFFFF"></rect><path d="M0 120L22.8 130.7C45.7 141.3 91.3 162.7 137 157.7C182.7 152.7 228.3 121.3 274 135.2C319.7 149 365.3 208 411.2 218.7C457 229.3 503 191.7 548.8 172.8C594.7 154 640.3 154 686 144.3C731.7 134.7 777.3 115.3 823 109C868.7 102.7 914.3 109.3 937.2 112.7L960 116L960 541L937.2 541C914.3 541 868.7 541 823 541C777.3 541 731.7 541 686 541C640.3 541 594.7 541 548.8 541C503 541 457 541 411.2 541C365.3 541 319.7 541 274 541C228.3 541 182.7 541 137 541C91.3 541 45.7 541 22.8 541L0 541Z" fill="#fa7268"></path><path d="M0 304L22.8 288.8C45.7 273.7 91.3 243.3 137 242.3C182.7 241.3 228.3 269.7 274 274.8C319.7 280 365.3 262 411.2 250.3C457 238.7 503 233.3 548.8 236.3C594.7 239.3 640.3 250.7 686 258.2C731.7 265.7 777.3 269.3 823 269.2C868.7 269 914.3 265 937.2 263L960 261L960 541L937.2 541C914.3 541 868.7 541 823 541C777.3 541 731.7 541 686 541C640.3 541 594.7 541 548.8 541C503 541 457 541 411.2 541C365.3 541 319.7 541 274 541C228.3 541 182.7 541 137 541C91.3 541 45.7 541 22.8 541L0 541Z" fill="#ef5f67"></path><path d="M0 317L22.8 313.8C45.7 310.7 91.3 304.3 137 301C182.7 297.7 228.3 297.3 274 293C319.7 288.7 365.3 280.3 411.2 293.2C457 306 503 340 548.8 337C594.7 334 640.3 294 686 284.2C731.7 274.3 777.3 294.7 823 312.5C868.7 330.3 914.3 345.7 937.2 353.3L960 361L960 541L937.2 541C914.3 541 868.7 541 823 541C777.3 541 731.7 541 686 541C640.3 541 594.7 541 548.8 541C503 541 457 541 411.2 541C365.3 541 319.7 541 274 541C228.3 541 182.7 541 137 541C91.3 541 45.7 541 22.8 541L0 541Z" fill="#e34c67"></path><path d="M0 361L22.8 365.7C45.7 370.3 91.3 379.7 137 379.5C182.7 379.3 228.3 369.7 274 365.2C319.7 360.7 365.3 361.3 411.2 362.3C457 363.3 503 364.7 548.8 360.7C594.7 356.7 640.3 347.3 686 347.5C731.7 347.7 777.3 357.3 823 356.7C868.7 356 914.3 345 937.2 339.5L960 334L960 541L937.2 541C914.3 541 868.7 541 823 541C777.3 541 731.7 541 686 541C640.3 541 594.7 541 548.8 541C503 541 457 541 411.2 541C365.3 541 319.7 541 274 541C228.3 541 182.7 541 137 541C91.3 541 45.7 541 22.8 541L0 541Z" fill="#d53867"></path><path d="M0 422L22.8 433.2C45.7 444.3 91.3 466.7 137 463.8C182.7 461 228.3 433 274 428.8C319.7 424.7 365.3 444.3 411.2 450.3C457 456.3 503 448.7 548.8 441.2C594.7 433.7 640.3 426.3 686 424.3C731.7 422.3 777.3 425.7 823 437.7C868.7 449.7 914.3 470.3 937.2 480.7L960 491L960 541L937.2 541C914.3 541 868.7 541 823 541C777.3 541 731.7 541 686 541C640.3 541 594.7 541 548.8 541C503 541 457 541 411.2 541C365.3 541 319.7 541 274 541C228.3 541 182.7 541 137 541C91.3 541 45.7 541 22.8 541L0 541Z" fill="#c62368"></path></svg>